<mxfile host="Electron" agent="Mozilla/5.0 (Windows NT 10.0; Win64; x64) AppleWebKit/537.36 (KHTML, like Gecko) draw.io/26.2.2 Chrome/134.0.6998.178 Electron/35.1.2 Safari/537.36" version="26.2.2">
  <diagram id="prtHgNgQTEPvFCAcTncT" name="Page-1">
    <mxGraphModel dx="1428" dy="841" grid="1" gridSize="10" guides="1" tooltips="1" connect="1" arrows="1" fold="1" page="1" pageScale="1" pageWidth="827" pageHeight="1169" math="0" shadow="0">
      <root>
        <mxCell id="0" />
        <mxCell id="1" parent="0" />
        <mxCell id="rxXcTsBDmJyJXdscW_Ro-2" value="SYS College Learning Management System (LMS) - V 1.0" style="swimlane;whiteSpace=wrap;html=1;startSize=23;fillStyle=solid;fillColor=#1ba1e2;strokeColor=#006EAF;fontColor=#ffffff;" vertex="1" parent="1">
          <mxGeometry x="40" y="80" width="850" height="430" as="geometry" />
        </mxCell>
        <mxCell id="rxXcTsBDmJyJXdscW_Ro-3" value="Admin Staff" style="swimlane;whiteSpace=wrap;html=1;" vertex="1" parent="rxXcTsBDmJyJXdscW_Ro-2">
          <mxGeometry y="23" width="130" height="407" as="geometry" />
        </mxCell>
        <mxCell id="rxXcTsBDmJyJXdscW_Ro-8" value="" style="edgeStyle=orthogonalEdgeStyle;rounded=0;orthogonalLoop=1;jettySize=auto;html=1;" edge="1" parent="rxXcTsBDmJyJXdscW_Ro-3" source="rxXcTsBDmJyJXdscW_Ro-6" target="rxXcTsBDmJyJXdscW_Ro-7">
          <mxGeometry relative="1" as="geometry" />
        </mxCell>
        <mxCell id="rxXcTsBDmJyJXdscW_Ro-6" value="" style="ellipse;whiteSpace=wrap;html=1;fillColor=#60a917;fontColor=#ffffff;strokeColor=#2D7600;" vertex="1" parent="rxXcTsBDmJyJXdscW_Ro-3">
          <mxGeometry x="50" y="57" width="40" height="33" as="geometry" />
        </mxCell>
        <mxCell id="rxXcTsBDmJyJXdscW_Ro-7" value="&lt;font face=&quot;Verdana&quot;&gt;&lt;b&gt;Enroll Student&lt;/b&gt;&lt;/font&gt;" style="whiteSpace=wrap;html=1;" vertex="1" parent="rxXcTsBDmJyJXdscW_Ro-3">
          <mxGeometry x="20" y="117" width="100" height="33.5" as="geometry" />
        </mxCell>
        <mxCell id="rxXcTsBDmJyJXdscW_Ro-11" value="" style="endArrow=classic;html=1;rounded=0;exitX=0;exitY=0.5;exitDx=0;exitDy=0;" edge="1" parent="rxXcTsBDmJyJXdscW_Ro-3" source="rxXcTsBDmJyJXdscW_Ro-6">
          <mxGeometry width="50" height="50" relative="1" as="geometry">
            <mxPoint x="20" y="257" as="sourcePoint" />
            <mxPoint x="50" y="217" as="targetPoint" />
            <Array as="points">
              <mxPoint x="10" y="74" />
              <mxPoint x="10" y="147" />
              <mxPoint x="10" y="217" />
            </Array>
          </mxGeometry>
        </mxCell>
        <mxCell id="rxXcTsBDmJyJXdscW_Ro-14" value="Manage&lt;div&gt;Schedule&lt;/div&gt;" style="whiteSpace=wrap;html=1;fontFamily=Verdana;fontStyle=1" vertex="1" parent="rxXcTsBDmJyJXdscW_Ro-3">
          <mxGeometry x="50" y="197" width="70" height="53" as="geometry" />
        </mxCell>
        <mxCell id="rxXcTsBDmJyJXdscW_Ro-4" value="Student Information System" style="swimlane;whiteSpace=wrap;html=1;startSize=23;fillColor=#ffcd28;strokeColor=#d79b00;gradientColor=#ffa500;" vertex="1" parent="rxXcTsBDmJyJXdscW_Ro-2">
          <mxGeometry x="131" y="23" width="189" height="407" as="geometry">
            <mxRectangle x="201" y="23" width="190" height="30" as="alternateBounds" />
          </mxGeometry>
        </mxCell>
        <mxCell id="rxXcTsBDmJyJXdscW_Ro-9" value="Sync Student" style="whiteSpace=wrap;html=1;fontFamily=Verdana;fontStyle=1" vertex="1" parent="rxXcTsBDmJyJXdscW_Ro-4">
          <mxGeometry x="51.75" y="137" width="108.25" height="33" as="geometry" />
        </mxCell>
        <mxCell id="rxXcTsBDmJyJXdscW_Ro-10" value="" style="edgeStyle=orthogonalEdgeStyle;rounded=0;orthogonalLoop=1;jettySize=auto;html=1;" edge="1" parent="rxXcTsBDmJyJXdscW_Ro-2" source="rxXcTsBDmJyJXdscW_Ro-7" target="rxXcTsBDmJyJXdscW_Ro-9">
          <mxGeometry relative="1" as="geometry">
            <Array as="points">
              <mxPoint x="65" y="180" />
            </Array>
          </mxGeometry>
        </mxCell>
      </root>
    </mxGraphModel>
  </diagram>
</mxfile>
